<svg xmlns="http://www.w3.org/2000/svg" width="151" height="43" fill="none"><g clip-path="url(#a)"><path fill="#fff" d="M16.976 1.605c0 .031.03.031 0 .062H15.34v-.062z"/><path fill="#fff" d="M14.444 1.637h1.635c5.031.37 8.89 2.778 11.513 7.068 1.265 2.13 1.944 4.537 1.913 7.037.062 1.203-.802 2.253-2.006 2.376a2.186 2.186 0 0 1-2.438-1.728 5.7 5.7 0 0 1-.093-1.019c-.278-5.37-4.846-9.506-10.216-9.197-4.537.247-8.333 3.58-9.074 8.086a8 8 0 0 0-.123 1.482c.061 1.265-.926 2.314-2.192 2.376h-.092c-1.235 0-2.253-.987-2.253-2.222v-.216c0-2.963.987-5.803 2.746-8.18C6.295 4.076 9.721 2.13 13.95 1.669zM18.55 38.272h-8.396c-1.296 0-2.191-.71-2.5-1.852-.309-1.265.494-2.561 1.76-2.87.123-.03.246-.062.4-.062h17.13c1.235 0 2.13.618 2.438 1.729.37 1.234-.308 2.561-1.574 2.932a2 2 0 0 1-.586.092c-2.47.031-4.97.031-7.438.031zM18.518 31.514H10a2.406 2.406 0 0 1-2.346-1.883c-.247-1.08.309-2.191 1.327-2.685.309-.154.648-.247.988-.247H27.16a2.405 2.405 0 0 1 2.315 2.47c-.03 1.265-1.05 2.252-2.315 2.314-2.901.031-5.771.031-8.642.031M18.518 24.753H10.03c-1.327.03-2.407-1.05-2.438-2.377v-.03c0-1.297 1.05-2.377 2.345-2.377h17.130000000000003a2.377 2.377 0 0 1 2.377 2.376 2.38 2.38 0 0 1-1.852 2.315c-.185.031-.37.062-.556.062z"/><path fill="#F56F46" d="M3.271 26.883c1.297 0 2.346 1.018 2.346 2.315s-1.05 2.345-2.346 2.376c-1.296 0-2.345-1.08-2.345-2.346a2.325 2.325 0 0 1 2.345-2.345M3.271 20.125a2.36 2.36 0 0 1 2.346 2.315c0 1.296-1.05 2.345-2.346 2.376a2.345 2.345 0 0 1-2.345-2.345c0-1.297 1.08-2.346 2.345-2.346M3.271 33.64a2.345 2.345 0 1 1 0 4.692c-1.296-.03-2.345-1.08-2.345-2.377s1.08-2.314 2.345-2.314"/><path fill="#fff" d="M35.123 20.525h3.58V22.9h.123c.278-.401.587-.802.926-1.173.34-.34.71-.648 1.111-.895a4.8 4.8 0 0 1 1.42-.586 7.6 7.6 0 0 1 1.852-.216c1.019-.031 2.037.247 2.932.71a3.78 3.78 0 0 1 1.914 2.16c.617-.833 1.358-1.574 2.222-2.13.833-.524 1.913-.771 3.148-.771 1.821 0 3.24.463 4.229 1.358.987.895 1.543 2.377 1.543 4.475v11.945h-3.828V27.685c0-.679-.03-1.327-.061-1.883 0-.524-.154-1.018-.401-1.45a1.93 1.93 0 0 0-.926-.926 3.74 3.74 0 0 0-1.729-.309c-1.296 0-2.222.401-2.808 1.204-.587.802-.895 1.944-.895 3.395v10.093h-3.797V26.698c0-1.204-.216-2.13-.648-2.747-.432-.618-1.235-.926-2.376-.926-.494 0-.957.123-1.42.308a3.4 3.4 0 0 0-1.204.895c-.37.402-.648.895-.833 1.39a5.8 5.8 0 0 0-.309 1.913v10.247h-3.796zM77.87 33.951c-.031.34.03.68.185.988.185.216.432.34.71.309h.401c.185 0 .34-.031.494-.062v2.623c-.124.031-.309.093-.494.155l-.648.154c-.216.03-.463.062-.68.093-.184.03-.4.03-.585.03-.68.031-1.359-.154-1.945-.462-.494-.31-.833-.834-.988-1.667a6.4 6.4 0 0 1-2.777 1.574 12.2 12.2 0 0 1-3.149.494c-.74 0-1.512-.093-2.222-.309a5.4 5.4 0 0 1-1.882-.926 4.2 4.2 0 0 1-1.297-1.543c-.34-.679-.494-1.45-.494-2.222-.03-.895.155-1.79.587-2.593a4.1 4.1 0 0 1 1.543-1.543 6 6 0 0 1 2.13-.803c.771-.154 1.574-.308 2.376-.4a25 25 0 0 1 1.975-.279 10.5 10.5 0 0 0 1.667-.308 2.2 2.2 0 0 0 1.111-.617c.309-.34.463-.803.432-1.266a2.3 2.3 0 0 0-.34-1.204c-.215-.308-.524-.586-.894-.71a3.2 3.2 0 0 0-1.173-.308 8 8 0 0 0-1.204-.093c-.926-.03-1.852.185-2.623.68a2.75 2.75 0 0 0-1.173 2.067h-3.796c.03-.987.308-1.944.802-2.777a5.3 5.3 0 0 1 1.76-1.76 7.3 7.3 0 0 1 2.468-.926c.926-.185 1.883-.247 2.81-.277q1.25 0 2.5.277a6.6 6.6 0 0 1 2.221.895c.648.37 1.173.895 1.575 1.544.432.71.648 1.512.617 2.345v8.89zm-3.827-4.845c-.649.4-1.39.648-2.13.679-.833.061-1.698.185-2.53.34a5 5 0 0 0-1.174.308c-.34.123-.679.278-.987.494a2.25 2.25 0 0 0-.68.833 3 3 0 0 0-.277 1.265c0 .402.123.772.34 1.08.246.279.555.495.894.68.37.185.741.278 1.112.34q.555.092 1.11.092c.464 0 .926-.062 1.359-.154a4.6 4.6 0 0 0 1.389-.587c.432-.247.771-.586 1.08-.988.308-.462.463-.987.432-1.512zM81.234 13.918H85v23.858h-3.766zM99.722 26.296a3.6 3.6 0 0 0-1.296-2.438c-.772-.556-1.698-.865-2.654-.803a6.5 6.5 0 0 0-1.544.278 3.76 3.76 0 0 0-1.543.926 6.4 6.4 0 0 0-1.173 1.913c-.37.803-.463 1.883-.463 3.18 0 .74.093 1.45.278 2.16.154.679.401 1.327.803 1.913a4.3 4.3 0 0 0 1.42 1.358c.648.37 1.388.525 2.129.525a3.91 3.91 0 0 0 2.778-1.05c.74-.678 1.173-1.666 1.358-2.931h3.765c-.339 2.222-1.203 3.95-2.531 5.154-1.327 1.204-3.148 1.76-5.34 1.76a8.8 8.8 0 0 1-3.58-.68 7.3 7.3 0 0 1-2.623-1.883 7.1 7.1 0 0 1-1.605-2.808 11.5 11.5 0 0 1-.555-3.55c0-1.234.154-2.438.493-3.61a9.1 9.1 0 0 1 1.575-2.964 7.6 7.6 0 0 1 2.654-1.975 9.05 9.05 0 0 1 3.734-.71c.957 0 1.914.124 2.84.401a6.36 6.36 0 0 1 2.377 1.173 6.15 6.15 0 0 1 1.728 1.945c.463.864.741 1.79.802 2.778h-3.858zM120.309 33.951c-.031.34.031.679.185.988.186.216.432.34.741.308h.401c.186 0 .34-.03.494-.061v2.623c-.123.03-.308.093-.494.154l-.648.155c-.216.03-.463.061-.679.092-.185.031-.401.031-.586.031-.679.031-1.358-.154-1.945-.463-.493-.309-.833-.833-.987-1.666a6.4 6.4 0 0 1-2.778 1.574 11 11 0 0 1-3.179.462 7.7 7.7 0 0 1-2.222-.308 5.4 5.4 0 0 1-1.883-.926 4.2 4.2 0 0 1-1.296-1.543c-.34-.68-.494-1.45-.494-2.223a5.1 5.1 0 0 1 .586-2.592 4.1 4.1 0 0 1 1.543-1.543 5.9 5.9 0 0 1 2.161-.803c.772-.154 1.574-.308 2.377-.401a25 25 0 0 1 1.975-.278 10.5 10.5 0 0 0 1.666-.308 2.2 2.2 0 0 0 1.112-.618 1.72 1.72 0 0 0 .432-1.265 2.3 2.3 0 0 0-.34-1.204c-.216-.308-.525-.586-.895-.71a3.1 3.1 0 0 0-1.173-.308 8 8 0 0 0-1.203-.093c-.926-.03-1.852.185-2.624.68a2.75 2.75 0 0 0-1.173 2.067h-3.796a5.8 5.8 0 0 1 .802-2.778 5.3 5.3 0 0 1 1.76-1.759 7.3 7.3 0 0 1 2.469-.926c.926-.185 1.883-.247 2.808-.278q1.25 0 2.5.278a6.4 6.4 0 0 1 2.223.895c.648.37 1.173.895 1.574 1.543.432.68.648 1.482.617 2.284v8.89h-.062zm-3.827-4.846a4.15 4.15 0 0 1-2.16.68c-.834.061-1.698.184-2.531.339a5 5 0 0 0-1.173.309c-.34.123-.679.277-.988.493a2.1 2.1 0 0 0-.679.803 3 3 0 0 0-.278 1.265c0 .401.124.772.34 1.08.247.278.555.494.895.68.37.185.741.277 1.111.339q.556.093 1.111.093c.463 0 .926-.062 1.358-.155a4.6 4.6 0 0 0 1.389-.586c.432-.247.772-.587 1.08-.988.309-.463.463-.988.432-1.512zM123.611 20.526h3.55v3.364h.061a3.7 3.7 0 0 1 .649-1.358c.339-.463.74-.864 1.172-1.235.463-.37.988-.648 1.544-.895a4.8 4.8 0 0 1 1.728-.308c.309 0 .617 0 .926.03.154.032.309.032.525.062v3.673c-.278-.03-.556-.092-.803-.123-.308-.031-.555-.062-.802-.062-.618 0-1.266.123-1.821.401a4.6 4.6 0 0 0-1.513 1.142 4.9 4.9 0 0 0-.987 1.852 7.7 7.7 0 0 0-.34 2.53v8.242h-3.796V20.526zM137.254 30.125c0 .678.123 1.327.309 1.944q.278.88.833 1.667c.401.463.864.864 1.42 1.142a4.4 4.4 0 0 0 2.068.432c1.111 0 2.006-.216 2.685-.71.71-.556 1.265-1.297 1.543-2.16h3.58a6.9 6.9 0 0 1-1.049 2.5 6.3 6.3 0 0 1-1.759 1.851 7.2 7.2 0 0 1-2.346 1.142 9.5 9.5 0 0 1-6.266-.278 7.3 7.3 0 0 1-2.654-1.882 8.5 8.5 0 0 1-1.667-2.902 12.3 12.3 0 0 1-.555-3.672 9.8 9.8 0 0 1 .555-3.519 9 9 0 0 1 1.698-2.932 8.2 8.2 0 0 1 2.623-1.975 8.47 8.47 0 0 1 7.13.092 8 8 0 0 1 2.685 2.284 9.6 9.6 0 0 1 1.543 3.21c.34 1.235.433 2.5.278 3.765zm8.889-2.5a5 5 0 0 0-.401-1.76 3.7 3.7 0 0 0-.896-1.45 3.7 3.7 0 0 0-1.327-.988c-.524-.278-1.142-.401-1.728-.401-.617 0-1.235.123-1.821.34a4 4 0 0 0-1.389.956c-.401.401-.71.895-.926 1.45-.216.587-.37 1.204-.401 1.822z"/></g><defs><clipPath id="a"><path fill="#fff" d="M0 0h150.895v40H0z"/></clipPath></defs></svg>