<svg xmlns="http://www.w3.org/2000/svg" xml:space="preserve" width="250" height="60"><path fill="#FFF" d="m52.013 22.19-3.08 3.08 3.095-3.093q-.005.002-.015.013M46.823 27.38l2.11-2.109z"/><path fill="#093071" d="M68.583 14.072v26.975c0 .253.197.469.447.489 1.422.119 3 .119 4.659 0 1.354-.103 3.007-.297 5.046-.591q-.111.615-.111 1.336c0 .41.042.907.122 1.446H62.691V14.079q.459.041 1.189.142c.712.122 1.443.125 1.879.009l1.444-.006c.55-.076 1.005-.128 1.38-.152m19.244 1.477c-.856.119-1.427.122-1.839.006h-1.444c-.509-.07-.898-.114-1.193-.142v28.315h5.59V15.407c-.322.024-.688.07-1.114.142m5.536-.163q.081.603.081 1.196c0 .516-.025.973-.073 1.362h.933c2.645-.335 4.865-.505 6.569-.505a.49.49 0 0 1 .491.489v25.799h5.422V17.929c0-.27.22-.489.491-.489 1.238 0 3.011.113 5.273.337.571.083 1.179.135 1.812.158a4.6 4.6 0 0 1 .003-1.34 3.3 3.3 0 0 1 .012-1.208zm25.462 0v28.341h15.313a9.6 9.6 0 0 1-.115-1.361q0-.663.098-1.235a43 43 0 0 1-3.45.373c-1.448.113-3.445.172-5.934.172a.49.49 0 0 1-.489-.492V30.229a.49.49 0 0 1 .489-.49h4.098c1.365.081 2.464.16 3.56.24l.814.057q-.035-.163-.082-.361l-.015-1.97q0-.086.026-.158l.036-.113a34 34 0 0 1-4.34.254h-4.098a.49.49 0 0 1-.489-.49v-9.269c0-.27.218-.489.489-.489 3.023 0 6.195.196 9.44.586a5.742 5.742 0 0 1 .001-2.639h-15.352zm38.363 19.632c-.116-3.499-2.809-6.608-8.015-9.212-3.857-1.988-5.73-3.919-5.73-5.899 0-3.192 1.869-4.944 5.408-5.072 2.406 0 4.259 1.29 5.514 3.838.133-.447.315-1.021.554-1.742.289-.765.534-1.405.739-1.936-1.85-1.102-4.079-1.716-6.633-1.823-6.422.34-9.662 3.298-9.886 9.042 0 3.871 2.452 6.979 7.293 9.228 4.045 1.839 6.095 3.944 6.095 6.257-.258 3.247-2.194 4.945-5.757 5.073-3.526-.123-5.731-1.78-6.569-4.936h-.063a33 33 0 0 1-1.066 5.033 21.8 21.8 0 0 0 6.624 1.389c7.112 0 11.037-3.372 11.492-9.24m9.365-4.079a.47.47 0 0 0-.455.467v12.321h-5.627V15.381h10.136c5.805 0 8.681 2.217 8.787 6.776.043 2.481-.639 4.455-2.024 5.865-1.907 1.943-5.244 2.927-9.919 2.927-.287 0-.576-.004-.898-.01m-.051-1.427c.217.033.45.048.687.048.691 0 1.488-.134 2.368-.397 2.553-.73 3.971-2.806 4.21-6.202-.239-3.829-1.746-5.958-4.507-6.33h-2.69a.47.47 0 0 0-.471.47V29.05c0 .231.172.43.403.462m35.401-14.131v28.346h15.338a10 10 0 0 1-.115-1.383q-.002-.677.103-1.258a42 42 0 0 1-3.474.379c-1.46.113-3.396.17-5.921.17a.47.47 0 0 1-.47-.469v-10.94a.47.47 0 0 1 .47-.469h4.542c1.705.103 3.26.201 4.683.299q-.036-.175-.088-.39l-.015-1.962q-.001-.081.025-.15l.047-.145a40 40 0 0 1-4.652.257h-4.542a.47.47 0 0 1-.47-.468v-9.257a.47.47 0 0 1 .47-.469c3.028 0 6.205.2 9.452.59a5.7 5.7 0 0 1 .004-2.682zm28.615 28.347h-9.339V15.381l12.013-.002c8.1.55 12.251 4.913 12.691 13.306-.544 9.437-5.714 14.497-15.365 15.043m9.064-15.016c0-7.792-3.498-11.745-10.396-11.745h-2.081a.47.47 0 0 0-.468.47v24.236a.47.47 0 0 0 .468.469h1.84c3.524 0 6.215-1.15 7.995-3.419 1.75-2.234 2.642-5.604 2.642-10.011m-57.046-13.331v28.346h15.335c-.074-.516-.115-.99-.115-1.383q0-.677.101-1.258c-1.06.163-2.226.292-3.471.379-1.46.113-3.398.17-5.924.17a.47.47 0 0 1-.469-.469v-10.94c0-.257.212-.469.469-.469h4.544c1.708.103 3.26.201 4.683.299a13 13 0 0 0-.087-.39l-.016-1.962q.001-.081.025-.15a2 2 0 0 0 .043-.145 40 40 0 0 1-4.648.257h-4.544a.47.47 0 0 1-.469-.468v-9.257c0-.258.212-.469.469-.469 3.028 0 6.206.2 9.453.59a5.8 5.8 0 0 1-.159-1.298q.002-.731.161-1.384z"/><path fill="#5E8CDA" d="M48.215 29.117 34.938 15.841l-5.656 7.178 6.099 6.098a1.45 1.45 0 0 1 0 2.045l-1.765 1.765s1.189 1.779 1.244 1.888c.274.55.34 1.841-.438 2.432l-13.87 10.646c-.003 3.572-.007 10.92-.002 10.923.003.001 27.665-27.653 27.665-27.653a1.45 1.45 0 0 0 0-2.046"/><path fill="#093071" d="M17.375 30.789a1.45 1.45 0 0 1 0-2.043l1.766-1.766-1.207-1.735a1.9 1.9 0 0 1 .399-2.582l13.871-10.648.01-10.915-.009-.006-.007-.01L4.539 28.746a1.45 1.45 0 0 0 .001 2.045l13.276 13.276 5.657-7.181z"/><path fill="#FFF" d="m26.611 39.554-6.419 6.419z"/><path fill="#5E8CDA" d="M39.195 7.751c.185 0 .371.117.453.282.146.302-.046.585-.239.828L27.254 24.289c-.175.224-.188.655-.028.888l6.787 9.84c.249.359.266 1.422-.305 1.854L14.166 51.873c-.278.214-.436.283-.629.285a.55.55 0 0 1-.431-.281c-.146-.298.047-.587.238-.833l12.153-15.425c.176-.232.191-.646.029-.888l-6.783-9.757a1.427 1.427 0 0 1 .299-1.937L38.589 8.033c.317-.247.478-.282.606-.282m0-.25c-.235 0-.455.096-.76.334L18.891 22.839a1.68 1.68 0 0 0-.352 2.279l6.782 9.755c.1.149.088.447-.023.594L13.147 50.89c-.16.206-.493.635-.266 1.098.114.23.376.402.639.42.306-.002.523-.125.798-.336L33.86 37.068c.676-.512.678-1.732.358-2.194l-6.786-9.84c-.1-.144-.09-.453.019-.591L39.605 9.016c.16-.202.494-.624.268-1.092a.77.77 0 0 0-.678-.423"/><path fill="#F5CD21" d="M33.517 35.054c.158.239.299 1.14-.096 1.44L13.875 51.496q-.246.19-.316.185c-.067.004-.019-.115.161-.346l12.149-15.419c.307-.396.327-1.048.045-1.455l-6.781-9.759s14.226 10.112 14.384 10.352"/><path fill="#FDDD75" d="m33.517 35.054-6.679-9.607c-.283-.408-.26-1.061.044-1.449l12.15-15.425c.181-.23.228-.346.163-.346-.049 0-.156.057-.317.185L19.332 23.415a.954.954 0 0 0-.199 1.288z"/></svg>